HIERARCHY
ROOT Hips
{
  OFFSET -213.699 104.721 0.752556
  CHANNELS 6 Xposition Yposition Zposition Zrotation Xrotation Yrotation
  JOINT RightUpLeg
  {
    OFFSET -8.9458 -8.66707 0.101652
    CHANNELS 3 Zrotation Xrotation Yrotation
    JOINT RightLeg
    {
      OFFSET 0 -44.4227 1.3727
      CHANNELS 3 Zrotation Xrotation Yrotation
      JOINT RightFoot
      {
        OFFSET 0.253549 -42.0924 -1.46059
        CHANNELS 3 Zrotation Xrotation Yrotation
        JOINT RightToes
        {
          OFFSET 0.04 -4.41509 8.4991
          CHANNELS 3 Zrotation Xrotation Yrotation
          End Site
          {
            OFFSET -0.08 -0.137448 9.77979
          }
        }
      }
    }
  }
  JOINT Spine
  {
    OFFSET 0 11.8905 0
    CHANNELS 3 Zrotation Xrotation Yrotation
    JOINT Spine1
    {
      OFFSET 0 25.6574 0.127663
      CHANNELS 3 Zrotation Xrotation Yrotation
      JOINT HEad
      {
        OFFSET 0 8.73416 0.011341
        CHANNELS 3 Zrotation Xrotation Yrotation
        End Site
        {
          OFFSET -0.29 12.7742 2.51395
        }
      }
      JOINT LeftShoulder1
      {
        OFFSET 8.99 -0.362252 -0.22
        CHANNELS 3 Zrotation Xrotation Yrotation
        JOINT LeftArm
        {
          OFFSET 10.2827 -0.00337999 0.322123
          CHANNELS 3 Zrotation Xrotation Yrotation
          JOINT LeftForeArm
          {
            OFFSET 26.2597 0.099144 -1.42434
            CHANNELS 3 Zrotation Xrotation Yrotation
            JOINT LeftHand
            {
              OFFSET 22.0902 0.085362 1.02216
              CHANNELS 3 Zrotation Xrotation Yrotation
              End Site
              {
                OFFSET 13.419 -0.6 1.50291
              }
            }
          }
        }
      }
      JOINT RightShoulder
      {
        OFFSET -8.99 -0.362252 -0.22
        CHANNELS 3 Zrotation Xrotation Yrotation
        JOINT RightArm
        {
          OFFSET -10.2827 -0.00338 0.322123
          CHANNELS 3 Zrotation Xrotation Yrotation
          JOINT RightForeArm
          {
            OFFSET -26.364 0.099144 -1.42434
            CHANNELS 3 Zrotation Xrotation Yrotation
            JOINT RightHand
            {
              OFFSET -22.0324 0.085362 1.02216
              CHANNELS 3 Zrotation Xrotation Yrotation
              End Site
              {
                OFFSET -13.3284 -0.6 1.50291
              }
            }
          }
        }
      }
    }
  }
  JOINT LeftUpLeg
  {
    OFFSET 8.9458 -8.66707 0.101652
    CHANNELS 3 Zrotation Xrotation Yrotation
    JOINT LeftLeg
    {
      OFFSET 0 -44.4227 1.3727
      CHANNELS 3 Zrotation Xrotation Yrotation
      JOINT LeftFoot
      {
        OFFSET -0.253549 -42.0924 -1.46059
        CHANNELS 3 Zrotation Xrotation Yrotation
        JOINT LeftToes
        {
          OFFSET -0.04 -4.41509 8.4991
          CHANNELS 3 Zrotation Xrotation Yrotation
          End Site
          {
            OFFSET 0.08 -0.047448 9.77979
          }
        }
      }
    }
  }
}
MOTION
Frames:	19
Frame Time:	0.0333333
-9.88673 131.752 -79.6217 3.04084 1.1108 58.7029 9.72212 -24.062 2.82531 -0.858124 43.183 -8.35646 1.22786 -28.1857 -0.0824563 0.0462048 0.000530889 0.662642 -2.43694 13.7861 -1.84859 5.94255 0.564568 -3.10313 1.863 15.1042 -11.5601 -29.316 -2.81835 11.4572 -72.8304 -41.3884 -36.5088 -176.088 53.9836 175.352 10.4419 8.7804 -8.05032 30.6839 -1.48001 -8.12036 47.8897 -9.31979 9.70615 0.279668 45.5692 17.9185 -3.71422 9.6543 4.44981 2.31445 -13.0257 6.89548 0.786194 66.7558 -0.305134 1.74111 -1.22803 -0.104642 -1.36231e-009 8.75215e-006 -1.46938e-008 
-7.93832 133.045 -78.3902 3.33832 0.682663 54.2887 10.8897 -19.6613 6.30132 -0.770615 39.3034 -7.39527 1.35725 -27.6746 -0.0613608 0.0462048 0.000530889 0.662642 -2.16925 13.4589 -1.4051 5.40057 0.687754 -2.44324 2.17751 16.2545 -11.0355 -29.7168 -3.10522 12.1683 -69.6458 -44.6904 -33.2141 -175.571 55.3321 175.52 10.38 8.79973 -7.90331 30.5919 -1.37879 -7.85621 48.2754 -6.70864 10.5338 -0.394439 43.1693 19.0605 -3.96062 9.62825 4.64997 1.79267 -17.4941 4.59826 1.42319 71.4029 3.63642 4.14122 -3.53678 -0.143867 -1.36231e-009 8.75215e-006 -1.46938e-008 
-6.01941 134.296 -77.1477 3.51137 0.294456 49.7204 11.4052 -15.3125 9.35963 -0.660735 35.1772 -5.88717 1.48559 -26.7662 -0.0438821 0.0462048 0.000530889 0.662642 -1.87264 12.9931 -0.97992 4.84527 0.935471 -1.8211 2.16672 17.229 -10.1926 -30.0706 -3.3842 12.8528 -66.2702 -47.8265 -29.6667 -175.079 56.5124 175.789 10.2234 8.82276 -7.8431 30.6082 -1.28981 -7.61198 48.2752 -3.18978 11.4211 -0.886393 39.9043 20.223 -4.17715 9.60295 4.88804 0.825606 -22.3619 1.99705 2.31434 74.8541 7.53698 6.96011 -5.36747 -0.122509 -1.36231e-009 8.75215e-006 -1.46938e-008 
-4.07437 135.44 -75.8717 3.63451 0.0585813 44.7725 11.2783 -11.1685 12.1973 -0.553358 31.1089 -3.90897 1.43746 -25.6826 -0.0594366 0.0462048 0.000530889 0.662642 -1.56267 12.3803 -0.363741 4.12914 1.24505 -1.02459 1.69128 18.0559 -9.0477 -30.5104 -3.70486 13.6134 -62.7801 -50.5057 -26.1252 -174.797 56.7624 176.26 10.0093 8.84493 -7.87442 30.5913 -1.2087 -7.39273 47.6577 1.6217 12.2869 -1.35072 35.7893 21.6462 -4.33059 9.58368 5.0836 -0.269408 -27.1725 -0.204731 3.20568 76.7815 10.6975 8.81049 -7.59999 0.0247122 -1.36231e-009 8.75215e-006 -1.46938e-008 
-2.09564 136.404 -74.5631 3.80113 -0.0509809 39.34 10.6089 -7.29472 14.315 -1.01647 27.3369 -0.708461 1.65412 -24.812 -0.0317966 0.0462048 0.000530889 0.662642 -1.13789 11.7466 0.461747 3.05049 1.62415 0.0162522 0.839964 18.6579 -7.75176 -31.0955 -4.0868 14.477 -59.0625 -52.6104 -22.5847 -174.77 55.8288 176.862 9.90458 8.85992 -7.83759 30.3094 -1.079 -7.06587 46.8479 6.39681 13.2322 -1.85123 32.2752 23.1777 -4.44629 9.56864 5.23382 -1.06613 -31.5596 -1.40208 3.60506 76.9158 12.9237 9.20925 -9.97898 0.232225 -1.36231e-009 8.75215e-006 -1.46938e-008 
-0.111297 137.115 -73.2394 4.13825 -0.167579 33.9024 9.44551 -3.79917 13.8949 -2.45221 24.1491 5.32606 2.3426 -24.3249 0.0683146 0.0462048 0.000530889 0.662642 -0.627892 11.4086 1.24209 1.7281 2.00552 1.04516 -0.215646 18.9402 -6.46562 -31.7747 -4.48945 15.3383 -55.1691 -54.27 -18.9716 -174.845 54.2132 177.47 9.93263 8.86715 -7.70367 29.7841 -0.889882 -6.59031 46.2217 9.80483 14.4354 -2.33364 30.5342 24.5206 -4.49212 9.56242 5.31486 -1.70445 -35.3191 -2.00393 3.24127 75.147 13.4706 8.93162 -11.6033 0.367964 -1.36231e-009 8.75215e-006 -1.46938e-008 
1.85121 137.511 -71.8896 4.64862 -0.451488 29.176 7.94295 -0.89714 12.4785 -3.64198 22.1344 11.7061 2.83686 -24.3198 0.142966 0.0462048 0.000530889 0.662642 -0.139181 11.5567 1.72973 0.550635 2.32144 1.75286 -1.36664 18.9222 -5.25838 -32.454 -4.85504 16.0719 -51.5283 -55.6354 -15.5223 -174.868 52.5598 178.035 9.8664 8.87887 -7.65015 29.2718 -0.693094 -6.07841 45.6295 11.8486 15.9387 -2.70134 30.1844 25.6016 -4.43401 9.56833 5.34421 -2.61105 -38.2396 -2.83986 2.38266 71.5258 11.3901 8.9469 -12.2655 0.425646 -1.36231e-009 8.75215e-006 -1.46938e-008 
3.77151 137.618 -70.4583 5.2052 -0.939882 25.4529 6.44271 1.47417 11.7349 -4.18517 21.4184 16.1435 2.36713 -24.9311 0.0803886 0.0462048 0.000530889 0.662642 0.314709 12.0336 1.90845 -0.320665 2.62887 2.09698 -2.44925 18.7253 -4.23321 -33.0497 -5.16028 16.6537 -48.6076 -56.694 -12.676 -174.827 50.9939 178.551 9.59884 8.90077 -7.76303 28.9337 -0.515887 -5.59695 44.8519 13.0719 17.5498 -2.91607 30.3125 26.4673 -4.36174 9.57057 5.4305 -3.75576 -40.067 -3.99785 1.45828 66.216 6.6809 8.78744 -12.6426 0.45002 -1.36231e-009 8.75215e-006 -1.46938e-008 
5.65486 137.487 -68.8938 5.72314 -1.56293 22.5913 5.11909 3.60395 12.2289 -4.2568 21.5521 18.2329 1.35389 -26.1833 -0.0706554 0.0462048 0.000530889 0.662642 0.797712 12.5937 1.8883 -1.04717 2.98385 2.22565 -3.1847 18.5303 -3.63124 -33.4881 -5.39562 17.0966 -46.5037 -57.4006 -10.6008 -174.779 49.3977 178.989 9.332 8.92273 -7.8795 28.7027 -0.342733 -5.1128 43.9403 14.0023 18.9947 -3.01294 30.3095 27.0627 -4.40664 9.561 5.61711 -4.84208 -40.7243 -5.09174 0.710559 59.5884 0.999587 6.86787 -13.1561 0.398457 -1.36231e-009 8.75215e-006 -1.46938e-008 
7.54542 137.09 -67.1335 6.1326 -2.30229 20.3467 4.0175 5.57216 14.123 -3.86612 22.4899 18.5026 0.592926 -27.9288 -0.200525 0.0462048 0.000530889 0.662642 1.42393 13.0599 1.78528 -1.70068 3.35793 2.27943 -3.40536 18.4948 -3.62664 -33.7084 -5.52858 17.3516 -45.0286 -57.8225 -9.09588 -174.739 48.034 179.303 9.2574 8.93394 -7.84332 28.4865 -0.183672 -4.66278 43.0752 14.726 20.1193 -3.03766 30.2639 27.3673 -4.5603 9.54118 5.78605 -5.86229 -40.4436 -6.05559 0.273817 52.7265 -2.82916 3.93608 -12.8454 0.251323 -1.36231e-009 8.75215e-006 -1.46938e-008 
9.43286 136.452 -65.1053 6.34238 -3.09414 18.4518 3.18383 7.39448 17.5323 -2.79796 24.1077 16.9671 -0.103436 -29.8163 -0.345741 0.0462048 0.000530889 0.662642 2.07639 13.1913 1.75182 -2.16946 3.8215 2.37245 -3.2301 18.6415 -4.07217 -33.7335 -5.56051 17.422 -43.9725 -58.0215 -7.95689 -174.727 47.4086 179.424 9.29879 8.9387 -7.7195 28.322 -0.0834908 -4.37727 42.1615 15.4254 20.9597 -2.97907 30.1436 27.4564 -4.69587 9.52693 5.82232 -6.98851 -39.7908 -6.87531 0.243592 47.762 -3.04704 4.0695 -10.5562 0.138436 -1.36231e-009 8.75215e-006 -1.46938e-008 
11.2419 135.713 -62.7796 6.29891 -3.69232 16.6789 2.59692 9.12829 21.4551 -1.33146 25.6528 14.0396 -1.05932 -31.6236 -0.571317 0.0462048 0.000530889 0.662642 2.43964 12.7416 1.86177 -2.39517 4.49244 2.5616 -2.9231 18.8669 -4.59753 -33.7011 -5.57576 17.4712 -43.0344 -57.9914 -7.08039 -174.798 47.6333 179.301 9.28989 8.94439 -7.67297 28.2877 -0.0568246 -4.30048 41.054 16.2808 21.5899 -2.78746 29.864 27.3352 -4.7336 9.52582 5.74323 -8.19562 -39.4916 -7.31162 0.424129 46.7341 -0.626467 9.19518 -7.67456 0.0253019 -1.36231e-009 8.75215e-006 -1.46938e-008 
12.978 134.983 -60.1626 6.04046 -3.89677 14.9755 2.07503 10.8278 23.9178 -0.360375 26.5475 11.7952 -1.53592 -33.2419 -0.710789 0.0462048 0.000530889 0.662642 2.50372 11.6972 2.02309 -2.45575 5.1637 2.75697 -2.63753 19.0116 -4.96907 -33.7391 -5.64326 17.6252 -41.9349 -57.864 -6.40005 -174.919 48.2829 179.033 9.19944 8.94525 -7.76675 28.3994 -0.0741094 -4.34803 39.918 17.3083 21.9539 -2.49999 29.496 26.9313 -4.70941 9.53323 5.58581 -9.34673 -39.6752 -7.56518 0.636341 49.5449 2.61028 15.5887 -7.48838 0.0248864 -1.36231e-009 8.75215e-006 -1.46938e-008 
14.6933 134.349 -57.2956 5.84078 -3.73149 13.565 1.25068 12.5509 24.3891 -0.0557774 26.8927 11.3648 -0.942132 -34.2278 -0.588338 0.0462048 0.000530889 0.662642 2.37412 10.4767 2.07654 -2.53907 5.51182 2.8369 -2.32276 18.8584 -5.30173 -33.8632 -5.72433 17.7819 -41.1316 -57.9503 -6.37875 -174.94 48.7226 178.919 9.13012 8.94228 -7.90023 28.6236 -0.113924 -4.45734 39.2396 18.0929 21.8279 -2.25302 29.2297 26.2919 -4.68566 9.54357 5.33354 -10.7468 -39.7455 -8.49777 0.897875 53.8173 6.17349 18.7469 -10.7858 0.566692 -1.36231e-009 8.75215e-006 -1.46938e-008 
16.3383 133.961 -54.3189 5.91854 -3.3886 12.6288 0.0498261 14.1747 23.4334 0.0661118 27.2515 11.8386 -0.200392 -34.0866 -0.403894 0.0462048 0.000530889 0.662642 2.08114 9.57579 2.04638 -2.80181 5.56091 2.86689 -1.80135 18.2113 -5.94742 -34.0254 -5.74515 17.7753 -42.0697 -58.3633 -8.32285 -174.74 48.3989 179.235 9.19251 8.94193 -7.84058 28.9006 -0.178196 -4.6336 39.488 17.8706 21.0065 -2.08323 29.1551 25.4465 -4.65062 9.55614 5.03831 -12.6351 -39.1785 -10.2893 1.18376 57.1135 9.71765 19.0295 -14.7797 1.28916 -1.36231e-009 8.75215e-006 -1.46938e-008 
17.7897 133.973 -51.3959 6.07185 -3.01145 11.98 -1.01681 14.9905 21.211 0.132683 28.9091 12.6978 0.146691 -32.7351 -0.304106 0.0462048 0.000530889 0.662642 1.7742 9.04795 2.11241 -3.21166 5.58296 3.02719 -0.954206 17.1417 -7.13509 -34.1467 -5.68567 17.586 -45.8902 -58.6585 -13.1061 -174.356 47.268 179.889 9.35627 8.95301 -7.42892 29.13 -0.248486 -4.82614 40.9553 15.4444 19.5794 -1.81722 30.1139 24.1349 -4.53485 9.57293 4.83114 -14.337 -37.9298 -11.862 1.42474 58.6349 12.5179 19.4168 -17.2875 1.7792 -1.36231e-009 8.75215e-006 -1.46938e-008 
19.0036 134.474 -48.6254 5.95223 -2.63641 11.2508 -1.59637 13.8465 18.3681 0.287132 33.4795 15.0067 2.18337 -29.5209 0.118704 0.0462048 0.000530889 0.662642 1.62104 8.66468 2.30619 -3.56652 5.62606 3.31239 0.0994341 16.0615 -8.62817 -34.1087 -5.55533 17.2787 -51.629 -58.1361 -19.35 -174.012 46.2785 -179.588 9.44096 8.98401 -6.87818 29.2143 -0.276764 -4.90313 43.7017 9.17925 18.0354 -1.24346 34.5472 22.0985 -4.33633 9.59463 4.68646 -14.9802 -36.1091 -12.2484 1.55913 58.6538 14.4104 20.6975 -18.9374 2.21691 -1.36231e-009 8.75215e-006 -1.46938e-008 
20.0487 135.415 -46.0226 5.58114 -2.31183 10.2619 -1.96915 10.162 16.0056 0.585452 41.2588 19.5103 8.583 -22.8667 0.840787 0.0462048 0.000530889 0.662642 1.45126 8.38139 2.42821 -3.6544 5.52012 3.47054 1.04662 15.4049 -9.81468 -33.8391 -5.36126 16.8912 -56.891 -56.6467 -24.4356 -174.006 46.9686 -179.658 9.37832 9.00917 -6.62704 29.1769 -0.253515 -4.83861 46.8169 0.450269 17.0406 -0.318453 42.3538 19.6191 -4.16108 9.61748 4.40997 -14.6355 -33.7625 -11.6789 1.60081 57.5026 15.8858 21.4715 -20.7819 2.67503 -1.36231e-009 8.75215e-006 -1.46938e-008 
20.9756 136.565 -43.5974 5.2785 -2.12832 9.01341 -2.41685 4.70409 14.6074 0.782942 50.2563 23.4716 17.7063 -13.4645 0.68841 0.0462048 0.000530889 0.662642 0.839251 8.31497 2.35488 -3.40073 5.28133 3.29631 1.6307 15.2513 -10.2323 -33.4435 -5.14947 16.4955 -60.5995 -54.5504 -27.5567 -174.31 50.0726 179.491 9.3856 8.99643 -6.79006 29.1545 -0.24269 -4.80878 48.9674 -6.34165 16.5251 0.705759 49.2306 17.4268 -4.05178 9.6364 4.04275 -14.0443 -31.0548 -10.8825 1.60394 55.5082 17.3716 21.4165 -22.3371 2.99128 -1.36231e-009 8.75215e-006 -1.46938e-008 
